<?xml version="1.0" encoding="utf-8"?>
<!-- Generator: Adobe Illustrator 21.0.2, SVG Export Plug-In . SVG Version: 6.00 Build 0)  -->
<svg version="1.1" id="Camada_1" opacity="0.7" xmlns="http://www.w3.org/2000/svg" xmlns:xlink="http://www.w3.org/1999/xlink"
	 x="0px" y="0px" viewBox="0 0 123.3 123.3" style="enable-background:new 0 0 123.3 123.3;" xml:space="preserve">
<style type="text/css">
	.st0{opacity:0.48;fill:none;stroke:#0081FF;stroke-miterlimit:10;enable-background:new    ;}
	.st1{opacity:0.18;fill:none;stroke:#0081FF;stroke-miterlimit:10;enable-background:new    ;}
	.st2{opacity:0.13;fill:none;stroke:#0081FF;stroke-miterlimit:10;enable-background:new    ;}
	.st3{opacity:0.49;fill:none;stroke:#0081FF;stroke-miterlimit:10;enable-background:new    ;}
	.st4{opacity:0.31;fill:none;stroke:#0081FF;stroke-miterlimit:10;enable-background:new    ;}
	.st5{opacity:0.17;fill:none;stroke:#0081FF;stroke-miterlimit:10;enable-background:new    ;}
	.st6{opacity:0.29;fill:none;stroke:#0081FF;stroke-miterlimit:10;enable-background:new    ;}
	.st7{opacity:7.000000e-02;fill:none;stroke:#0081FF;stroke-miterlimit:10;enable-background:new    ;}
	.st8{opacity:0.32;fill:none;stroke:#0081FF;stroke-miterlimit:10;enable-background:new    ;}
	.st9{opacity:0.44;fill:none;stroke:#0081FF;stroke-miterlimit:10;enable-background:new    ;}
	.st10{opacity:8.000000e-02;fill:none;stroke:#0081FF;stroke-miterlimit:10;enable-background:new    ;}
	.st11{opacity:0.22;fill:none;stroke:#0081FF;stroke-miterlimit:10;enable-background:new    ;}
</style>
<polygon class="st0" points="38.9,13.6 38.3,5 45.4,9.9 "/>
<rect x="98.2" y="88.8" transform="matrix(0.239 -0.971 0.971 0.239 -12.1615 168.2485)" class="st1" width="6.2" height="6.2"/>
<ellipse transform="matrix(0.1805 -0.9836 0.9836 0.1805 29.2885 161.8574)" class="st2" cx="111.8" cy="63.4" rx="3.8" ry="3.8"/>
<ellipse transform="matrix(0.1805 -0.9836 0.9836 0.1805 51.8682 75.9194)" class="st3" cx="71.5" cy="6.8" rx="2.3" ry="2.3"/>
<ellipse transform="matrix(0.1805 -0.9836 0.9836 0.1805 38.956 130.3956)" class="st4" cx="97.7" cy="41.8" rx="2.3" ry="2.3"/>
<polygon class="st2" points="61.9,22.2 64.8,17.5 69.5,20.4 "/>
<rect x="36.6" y="28.8" transform="matrix(0.424 -0.9057 0.9057 0.424 -5.5394 52.3541)" class="st5" width="3.5" height="3.5"/>
<ellipse transform="matrix(0.1805 -0.9836 0.9836 0.1805 12.1962 87.2718)" class="st6" cx="58.5" cy="36.3" rx="1.8" ry="1.8"/>
<rect x="61.2" y="56.6" transform="matrix(0.866 -0.5 0.5 0.866 -21.9868 41.4406)" class="st7" width="10.3" height="10.3"/>
<polygon class="st8" points="39.8,53 44.5,48.5 45.1,54.9 "/>
<polygon class="st9" points="71.9,84.1 78.4,81.6 80.9,88 "/>
<polygon class="st0" points="38.9,117.2 38.3,108.6 45.4,113.5 "/>
<rect x="52.1" y="95.3" transform="matrix(0.239 -0.971 0.971 0.239 -53.6121 128.4742)" class="st1" width="6.2" height="6.2"/>
<ellipse transform="matrix(0.1805 -0.9836 0.9836 0.1805 33.1563 111.4944)" class="st2" cx="83.5" cy="35.8" rx="3.8" ry="3.8"/>
<ellipse transform="matrix(0.1805 -0.9836 0.9836 0.1805 -38.8811 168.185)" class="st3" cx="81.5" cy="107.4" rx="2.3" ry="2.3"/>
<ellipse transform="matrix(0.1805 -0.9836 0.9836 0.1805 -75.0117 108.8242)" class="st4" cx="27.8" cy="99.4" rx="2.3" ry="2.3"/>
<polygon class="st2" points="58.9,118.8 61.8,114.1 66.5,117 "/>
<rect x="18.6" y="54.4" transform="matrix(0.424 -0.9057 0.9057 0.424 -39.0921 50.7961)" class="st5" width="3.5" height="3.5"/>
<ellipse transform="matrix(0.1805 -0.9836 0.9836 0.1805 -15.6003 47.0904)" class="st6" cx="20.5" cy="32.9" rx="1.8" ry="1.8"/>
<rect x="91.3" y="20.5" transform="matrix(0.866 -0.5 0.5 0.866 0.1017 51.6617)" class="st7" width="10.3" height="10.3"/>
<rect x="36.3" y="75.7" transform="matrix(0.9401 -0.3409 0.3409 0.9401 -24.1227 17.6079)" class="st10" width="3.5" height="3.5"/>
<polygon class="st11" points="97.4,72.2 93.7,74.1 91.8,70.4 "/>
<polygon class="st8" points="11.8,77.9 16.5,73.4 17.1,79.8 "/>
</svg>
