<?xml version="1.0" encoding="utf-8"?>
<!-- Generator: Adobe Illustrator 22.0.1, SVG Export Plug-In . SVG Version: 6.00 Build 0)  -->
<svg version="1.1" id="Camada_1" opacity="0.7" xmlns="http://www.w3.org/2000/svg" xmlns:xlink="http://www.w3.org/1999/xlink"
	 x="0px" y="0px" viewBox="0 0 123.3 123.3" style="enable-background:new 0 0 123.3 123.3;" xml:space="preserve">
<style type="text/css">
	.st0{opacity:0.12;fill:none;stroke:#FFFFFF;stroke-miterlimit:10;enable-background:new    ;}
	.st1{opacity:0.3;fill:none;stroke:#FFFFFF;stroke-miterlimit:10;enable-background:new    ;}
	.st2{opacity:7.000000e-02;fill:none;stroke:#FFFFFF;stroke-miterlimit:10;enable-background:new    ;}
	.st3{opacity:0.15;fill:none;stroke:#FFFFFF;stroke-miterlimit:10;enable-background:new    ;}
	.st4{opacity:0.1;fill:none;stroke:#FFFFFF;stroke-miterlimit:10;enable-background:new    ;}
</style>
<polygon class="st0" points="87.8,108.4 88.4,117 81.3,112.1 "/>
<rect x="18.5" y="29" transform="matrix(0.239 -0.971 0.971 0.239 -14.7355 45.4652)" class="st0" width="6.2" height="6.2"/>
<ellipse class="st0" cx="14.9" cy="58.7" rx="3.8" ry="3.8"/>
<ellipse class="st1" cx="102.4" cy="19.8" rx="3.8" ry="3.8"/>
<ellipse class="st0" cx="47.5" cy="115.2" rx="2.3" ry="2.3"/>
<ellipse class="st2" cx="34.9" cy="73.1" rx="2.3" ry="2.3"/>
<polygon class="st0" points="64.8,99.8 61.9,104.5 57.2,101.6 "/>
<rect x="54.2" y="68" transform="matrix(0.866 -0.5 0.5 0.866 -28.6245 39.4624)" class="st1" width="10.3" height="10.3"/>
<polygon class="st0" points="87.5,59 82.8,63.5 82.2,57.1 "/>
<polygon class="st3" points="59.3,48.6 52.8,51.1 50.3,44.7 "/>
<rect x="62" y="23.3" transform="matrix(0.239 -0.971 0.971 0.239 23.9057 83.2626)" class="st2" width="6.2" height="6.2"/>
<ellipse class="st1" cx="45.2" cy="14.6" rx="2.3" ry="2.3"/>
<ellipse class="st0" cx="88.4" cy="37.6" rx="2.3" ry="2.3"/>
<polygon class="st0" points="78.1,7.6 75.2,12.3 70.5,9.4 "/>
<rect x="102.3" y="66.4" transform="matrix(0.424 -0.9057 0.9057 0.424 -1.7512 133.4567)" class="st1" width="3.5" height="3.5"/>
<ellipse class="st0" cx="112.3" cy="99.4" rx="2.8" ry="2.8"/>
<ellipse class="st1" cx="88.4" cy="87.2" rx="4.2" ry="4.2"/>
<rect x="25.1" y="91.2" transform="matrix(0.866 -0.5 0.5 0.866 -44.1083 28.044)" class="st0" width="10.3" height="10.3"/>
<polygon class="st1" points="29.3,43.8 33,41.9 34.9,45.6 "/>
<polygon class="st4" points="114.9,44.1 110.2,48.6 109.6,42.2 "/>
<polygon class="st4" points="19.8,80.6 15.1,85.1 14.5,78.7 "/>
</svg>
