<?xml version="1.0" encoding="utf-8"?>
<!-- Generator: Adobe Illustrator 21.0.2, SVG Export Plug-In . SVG Version: 6.00 Build 0)  -->
<svg version="1.1" id="Camada_1" xmlns="http://www.w3.org/2000/svg" xmlns:xlink="http://www.w3.org/1999/xlink" x="0px" y="0px"
	 viewBox="0 0 285.8 214.4" style="enable-background:new 0 0 285.8 214.4;" xml:space="preserve">
<style type="text/css">
	.st0{fill:#D0E0EA;}
	.st1{fill:#FFFFFF;}
	.st2{fill:#71BFFF;}
	.st3{fill:#BDE249;}
	.st4{fill:#F9C050;}
	.st5{fill:#4075B5;}
	.st6{fill:#5EE4B7;}
	.st7{fill:#4BA0EF;}
	.st8{fill:#2A95DD;}
	.st9{opacity:0.3;fill:#2058A8;enable-background:new    ;}
	.st10{fill:#87C0F8;}
	.st11{fill:#C62C3F;}
	.st12{fill:#FF4455;}
	.st13{fill:#C98471;}
	.st14{fill:#E3E6E8;}
	.st15{fill:#F2CBB8;}
	.st16{fill:#C1E1F4;}
	.st17{fill:#B3D7E8;}
	.st18{fill:#5B3C1A;}
	.st19{fill:#E2BAAA;}
	.st20{fill:#FFE0CF;}
	.st21{fill:#F7D6C6;}
	.st22{fill:none;stroke:#363A3F;stroke-width:0.6767;stroke-miterlimit:10;}
	.st23{fill:none;stroke:#363A3F;stroke-width:0.8;stroke-linecap:round;stroke-linejoin:round;stroke-miterlimit:10;}
	.st24{fill:#363A3F;}
	.st25{fill:#3D280C;}
	.st26{fill:#231F1F;}
	.st27{fill:#513411;}
	.st28{fill:#7D2B25;}
	.st29{fill:#F2F2F2;}
	.st30{fill:#A84A3C;}
	.st31{fill:#A13E34;}
	.st32{fill:#DFEDF7;}
	.st33{fill:#C2D5E3;}
	.st34{fill:#5EE3B7;}
	.st35{fill:#585B5E;}
	.st36{fill:#E3E4E5;}
	.st37{fill:none;stroke:#3F3D3C;stroke-width:0.6315;stroke-linecap:round;stroke-linejoin:round;}
	.st38{fill:#AA616D;}
	.st39{fill:#F9C975;}
</style>
<g>
	<g transform="translate(303.182865, 182.928573)">
		<g id="Shape_147_" transform="translate(6.871000, 8.580861)">
			<polygon class="st0" points="-110.1,-80.4 -95.5,-80.4 -98,-92 -112.5,-92 			"/>
			<polygon class="st1" points="-114.5,-80.4 -100.1,-80.4 -98,-92 -112.6,-92 			"/>
		</g>
		<g>
			<polygon id="Shape_146_" class="st2" points="-107.8,-77 -106.5,-77 -104.8,-88.6 -106.1,-88.7 			"/>
			<polygon id="Shape_145_" class="st3" points="-109.3,-76.1 -108,-76.1 -107.4,-87.7 -108.7,-87.7 			"/>
			<path id="Shape_144_" class="st4" d="M-109.2-75.7L-109.2-75.7c0.4,0,0.6-0.4,0.6-0.7l-1.7-10.4c0-0.4-0.4-0.6-0.7-0.6l0,0
				c-0.4,0-0.6,0.4-0.6,0.7l1.6,10.4C-109.9-76-109.6-75.7-109.2-75.7z"/>
			<rect id="Rectangle-path_9_" x="-111.4" y="-81.9" class="st5" width="7.2" height="10"/>
		</g>
	</g>
	<g transform="translate(469.804610, 193.927467)">
		<g id="Shape_142_">
			<path class="st6" d="M-204.7-93.2L-217-83.1c-0.1-2.7,1.1-5.2,3.5-7.2C-211.2-92.4-207.9-93.2-204.7-93.2z"/>
			<path class="st6" d="M-192.4-88.8L-217-68.6c-0.2-5.2,2.1-10.5,7-14.5C-205.2-87-198.7-88.9-192.4-88.8z"/>
			<path class="st6" d="M-189.6-76.8l-27.2,22.2c-0.2-5.7,2.3-11.5,7.7-15.9C-203.8-74.8-196.6-76.9-189.6-76.8z"/>
			<path class="st6" d="M-217.4-46.6c0,0.4,0.4,0.6,0.8,0.6l0,0c0.4,0,0.8-0.3,0.8-0.6v-37.6c0-0.4-0.4-0.6-0.8-0.6l0,0
				c-0.4,0-0.8,0.3-0.8,0.6V-46.6z"/>
			<path class="st6" d="M-234-93.9l18.1,14.8c0.1-3.8-1.6-7.7-5.1-10.6C-224.6-92.5-229.3-94-234-93.9z"/>
			<path class="st6" d="M-245.5-85.5l29.1,23.9c0.3-6.2-2.5-12.3-8.3-17C-230.4-83.4-238-85.6-245.5-85.5z"/>
		</g>
		<rect id="Rectangle-path_7_" x="-232.3" y="-54.7" class="st7" width="31.3" height="1.6"/>
		<polygon id="Shape_141_" class="st7" points="-230,-53.1 -203.2,-53.1 -208,-31.9 -225.3,-31.9 		"/>
		<polygon id="Shape_140_" class="st8" points="-229.5,-50.8 -230,-53.1 -203.2,-53.1 -203.4,-52.4 		"/>
	</g>
	<path id="Shape_139_" class="st9" d="M204.2,205.6c0,3.1-22.3,5.6-54.3,5.6s-54.5-2.5-54.5-5.6s22.5-5.6,54.5-5.6
		C181.8,199.9,204.2,202.5,204.2,205.6z"/>
	<g transform="translate(88.464122, 73.951633)">
		<g id="Shape_138_" transform="translate(0.000000, 115.841629)">
			<path class="st9" d="M51.9-14.6c0,3-24.5,5.4-59.6,5.4c-35.2,0-59.8-2.4-59.8-5.4s24.8-5.4,59.8-5.4
				C27.5-19.9,51.9-17.5,51.9-14.6z"/>
			<path class="st10" d="M-16.4-48.7c0,0.8-0.6,1.4-1.4,1.4h-21.5c-0.8,0-1.4-0.6-1.4-1.4l0,0c0-0.8,0.6-1.4,1.4-1.4h21.4
				C-17.1-50.1-16.4-49.5-16.4-48.7L-16.4-48.7z"/>
			<g transform="translate(27.483999, 47.194738)">
				<path class="st10" d="M-36.5-63.6c0.3,0.9,1.3,1.4,2.1,1.1l0,0c0.9-0.3,1.4-1.3,1.1-2.1l-13.6-45.2c-0.3-0.9-1.3-1.4-2.1-1.1
					l0,0c-0.9,0.3-1.4,1.3-1.1,2.1L-36.5-63.6z"/>
				<path class="st10" d="M-75.6-63.6c-0.3,0.9-1.3,1.4-2.1,1.1l0,0c-0.9-0.3-1.4-1.3-1.1-2.1l13.6-45.3c0.3-0.9,1.3-1.4,2.1-1.1
					l0,0c0.9,0.3,1.4,1.3,1.1,2.1L-75.6-63.6z"/>
			</g>
			<path class="st11" d="M-56.4-74.9c0,0,0.4,4.4,0.9,10.1C-55-59.1-54.1-50-38.9-50h22l-16.5-25.4L-56.4-74.9z"/>
			<path class="st12" d="M-62.5-77.4c-1.9-2.7-0.5-12.1,5.5-13.7c7.4-2,10.4,2.7,14.5,5.9c4.1,3.2,6.7,6.6,18.2,6.6
				S-4.8-80.7-2.3-70s8.1,19.9-4.8,19.9c-12.3,0-21.6,1.8-25.5-5.7s-4.1-10.6-5.5-14.1c-1.4-3.5-3-4.5-11.3-4.7
				C-57.7-74.9-60.6-74.7-62.5-77.4z"/>
			<path class="st12" d="M-34.2-51.3c-3.9-7.6-4.1-10.6-5.5-14.1c-1.4-3.5-3-4.5-11.3-4.7c-1.9-0.1-3.5-0.1-4.9-0.1
				c0.1,1.6,0.3,3.4,0.4,5.5C-55-59.1-54.1-50-38.9-50h5.4C-33.7-50.4-34-50.9-34.2-51.3z"/>
			<path class="st13" d="M-32.6-60.3h22.7c4.9,0,8.3,1,8.7,3.7C-0.8-53.8-7.3-53-15-53S-27.6-51.2-32.6-60.3z"/>
			<polygon class="st14" points="13,-53.5 29.6,-16.1 22.2,-16.1 -0.1,-53.3 			"/>
			<path class="st1" d="M21.2-17.8c3.2,0.9,5.6,0.1,7.3-0.7c4.5,0.3,10,1.6,11.9,1.8c2.1,0.3,0.8,1.8-0.6,1.8H22.2L21.2-17.8z"/>
			<polygon class="st1" points="13.9,-53.5 2.4,-16.1 -4.9,-16.1 2.9,-53.5 			"/>
			<path class="st1" d="M-4.4-18.3c1.7,0.7,4.9,0.9,7.6-0.2c4.5,0.4,9.7,1.4,11.6,1.7c1.8,0.3,1.1,2-0.4,2H-5.3L-4.4-18.3z"/>
			<path class="st1" d="M-20.7-53l11.6-11.4h19c8,0,3.9,10.8,3.9,10.8L5.4-53L-20.7-53z"/>
			<path class="st1" d="M-36.3-64.4c0.7,2.1,1.8,4.7,3.7,8.5c0.6,1.2,1.3,2.1,2.1,2.9h9.3h11.5h2.8c6.3,0,8.5-0.9,8.5-7.2v-0.1v-4.2
				H-36.3L-36.3-64.4z"/>
		</g>
		<polygon id="Shape_137_" class="st15" points="9.8,32.2 -12.8,10.3 -17.6,16.3 6.9,35.9 		"/>
		<path id="Shape_136_" class="st16" d="M-13.2,4.5L-39,1.7c-3.4,0-5.6,2.8-6.2,6.2c-0.6,4.1-1.4,21.8-1.8,33.4
			c5.9,0.4,7.3,1.5,8.5,4.6c0.7,1.8,1.6,3.4,2.3,5.5l23.7,0.2l5.6-41C-7,7.2-9.7,4.9-13.2,4.5z"/>
		<g transform="translate(48.955873, 0.000000)">
			<g>
				<path class="st17" d="M-92.2,10.7c0.6-3.4,2.8-6.2,6.2-6.2l25.9,2.7c1.5,0.2,2.8,0.7,3.8,1.5c-0.8-2.4-3.1-4-5.8-4.3L-88,1.7
					c-3.4,0-5.6,2.8-6.2,6.2c-0.6,4.1-1.4,21.8-1.8,33.4c0.8,0,1.5,0.1,2.1,0.2C-93.5,30.1-92.8,14.5-92.2,10.7z"/>
			</g>
			<path id="Shape_135_" class="st15" d="M-68.8,6.1c-0.1,2.6-2.3,4.6-4.9,4.5l0,0c-2.6-0.1-4.6-2.3-4.5-4.9l0.7-16.3
				c0.1-2.6,2.3-4.6,4.9-4.5l0,0c2.6,0.1,4.6,2.3,4.5,4.9L-68.8,6.1z"/>
			<path class="st18" d="M-60.9-35.4L-60.9-35.4l0.2-4.5c0.1-2.3-1.6-4.2-3.9-4.3l-15-0.6c-2.3-0.1-4.2,1.7-4.3,3.9l-0.2,4.6
				c-1.8,0.1-3.3,1.6-3.3,3.5l0.4,18c-0.1,2,1.5,3.7,3.5,3.8l20.6,0.9c2,0.1,3.7-1.5,3.8-3.5l1.8-17.9
				C-57.3-33.7-58.9-35.4-60.9-35.4z"/>
			<path id="Shape_132_" class="st19" d="M-60.3-15.3c-0.1,1.6-1.5,2.9-3,2.8l-19.8-0.9c-1.6-0.1-2.9-1.5-2.8-3l0.1-1.1
				c0.1-1.6,1.5-2.9,3-2.8l19.8,0.8c1.6,0.1,2.9,1.5,2.8,3L-60.3-15.3z"/>
			<path id="Shape_130_" class="st20" d="M-63.5-14.3C-63.6-12.2-62.3-2-74-2c-11.9,0-8.7-9.7-9.9-11.4l-0.1-17.2
				c0.1-2,1.8-3.6,3.8-3.5c0,0,6,3,10.3,3.1c4.2,0.2,5.1-2.5,5.1-2.5c2,0.1,3.6,1.8,3.5,3.8L-63.5-14.3z"/>
			<path class="st15" d="M-72-14.4l-2.6-0.1c-0.3,0-0.5-0.3-0.4-0.6l0.2-4.5c0-0.3,0.2-0.5,0.5-0.5l2.6,0.1c0.3,0,0.5,0.3,0.4,0.6
				l-0.2,4.5C-71.5-14.6-71.7-14.4-72-14.4"/>
			<g transform="translate(3.435500, 30.891101)">
				<path class="st21" d="M-87.2-44.3l0.9-15.4c0.1-2,1.8-3.6,3.8-3.5c0,0,6,3,10.3,3.1c4.2,0.2,5.1-2.5,5.1-2.5
					c1,0,1.8,0.4,2.4,1.1c-0.3-1.6-1.7-2.8-3.4-2.9c0,0-0.9,2.7-5.1,2.5C-77.5-62-83.6-65-83.6-65c-2-0.1-3.7,1.5-3.8,3.5
					L-87.2-44.3"/>
				<ellipse id="Oval_25_" class="st22" cx="-82.1" cy="-50" rx="3.6" ry="3.6"/>
				<ellipse id="Oval_24_" class="st22" cx="-70.6" cy="-49.6" rx="3.6" ry="3.6"/>
				<path id="Shape_127_" class="st23" d="M-78.4-49.8c0,0,0.6-1.1,2.2-1.1c1.5,0.1,2,1.3,2,1.3"/>
			</g>
			<g>
				<ellipse id="Oval_23_" class="st24" cx="-78" cy="-19.1" rx="0.6" ry="0.6"/>
				<ellipse id="Oval_22_" class="st24" cx="-66.9" cy="-18.7" rx="0.6" ry="0.6"/>
			</g>
			<path id="Shape_125_" class="st21" d="M-75.8-5.9c0.2,0.6,0.7,1.1,1.3,1.1c0.6,0,1.3-0.4,1.5-0.9L-75.8-5.9z"/>
			<path id="Shape_124_" class="st25" d="M-76.7-27.7c0.1,0.4-0.3,0.9-0.7,0.9l-3,0.4c-0.4,0.1-0.9-0.3-0.9-0.7l0,0
				c-0.1-0.4,0.3-0.9,0.7-0.9l3-0.4C-77.2-28.6-76.8-28.2-76.7-27.7L-76.7-27.7z"/>
			<path id="Shape_123_" class="st25" d="M-68.5-27.4c-0.1,0.4,0.2,0.9,0.6,1l3,0.6c0.4,0.1,0.9-0.2,1-0.6l0,0
				c0.1-0.4-0.2-0.9-0.6-1l-3-0.6C-68-28.1-68.5-27.9-68.5-27.4L-68.5-27.4z"/>
			<g>
				<path class="st26" d="M-70.9-6.4C-71.6-7.3-72.7-8-74-8c-1.3-0.1-2.5,0.5-3.3,1.3l0.2,0.2c0.8-0.8,1.9-1.3,3.1-1.3
					c1.2,0.1,2.2,0.7,2.9,1.5L-70.9-6.4"/>
				<path class="st27" d="M-63.3-8.8c-0.3,5.9-5.3,10.4-11.2,10.1S-84-4.1-83.7-10l-0.1-3.4l20.3,1.2"/>
				<path class="st28" d="M-74.1-5.3L-74.1-5.3L-74.1-5.3 M-74.2-5.3L-74.2-5.3L-74.2-5.3 M-74.1-5.3L-74.1-5.3L-74.1-5.3
					 M-74.2-5.3L-74.2-5.3L-74.2-5.3 M-74.1-5.3L-74.1-5.3L-74.1-5.3 M-74.2-5.3L-74.2-5.3L-74.2-5.3 M-74.1-5.3L-74.1-5.3
					L-74.1-5.3 M-74.2-5.3L-74.2-5.3L-74.2-5.3 M-74-5.3L-74-5.3L-74-5.3 M-74.3-5.3L-74.3-5.3L-74.3-5.3 M-74-5.3L-74-5.3L-74-5.3
					 M-74.3-5.3L-74.3-5.3L-74.3-5.3 M-74-5.3L-74-5.3L-74-5.3 M-74-5.3L-74-5.3L-74-5.3 M-74.3-5.3C-74.3-5.3-74.3-5.3-74.3-5.3
					L-74.3-5.3 M-74-5.3L-74-5.3L-74-5.3 M-74.3-5.3L-74.3-5.3L-74.3-5.3 M-73.9-5.3L-73.9-5.3L-73.9-5.3 M-73.9-5.3
					C-73.9-5.3-73.9-5.3-73.9-5.3C-73.9-5.3-73.9-5.3-73.9-5.3 M-73.9-5.3L-73.9-5.3L-73.9-5.3 M-73.9-5.3L-73.9-5.3L-73.9-5.3
					 M-73.9-5.3L-73.9-5.3L-73.9-5.3 M-73.9-5.3L-73.9-5.3L-73.9-5.3 M-73.8-5.3L-73.8-5.3L-73.8-5.3 M-73.8-5.3L-73.8-5.3
					L-73.8-5.3 M-73.8-5.3L-73.8-5.3C-73.8-5.3-73.8-5.3-73.8-5.3 M-73.7-5.3L-73.7-5.3L-73.7-5.3 M-68.3-10.6l-11.1-0.6
					c-0.2,3,2.1,5.6,5.1,5.8c-1-0.1-2-0.5-2.8-1.1c0.8-0.9,2-1.3,3.2-1.3c1.2,0.1,2.3,0.7,3,1.6c-0.8,0.5-1.8,0.8-2.7,0.8
					C-70.8-5.4-68.4-7.7-68.3-10.6"/>
				<path class="st29" d="M-79.2-9.4l10.5,0.6c0.2-0.6,0.4-1.1,0.4-1.8l-11.1-0.6C-79.4-10.6-79.4-10-79.2-9.4"/>
				<path class="st30" d="M-74.2-5.3L-74.2-5.3L-74.2-5.3 M-74.1-5.3L-74.1-5.3L-74.1-5.3 M-74.2-5.3L-74.2-5.3L-74.2-5.3
					 M-74.1-5.3L-74.1-5.3L-74.1-5.3 M-74.2-5.3L-74.2-5.3L-74.2-5.3 M-74.2-5.3L-74.2-5.3L-74.2-5.3 M-74.1-5.3L-74.1-5.3
					L-74.1-5.3 M-74.2-5.3C-74.2-5.3-74.2-5.3-74.2-5.3C-74.2-5.3-74.2-5.3-74.2-5.3 M-74.1-5.3C-74.1-5.3-74.1-5.3-74.1-5.3
					C-74.1-5.3-74.1-5.3-74.1-5.3 M-74.3-5.3L-74.3-5.3L-74.3-5.3 M-74-5.3L-74-5.3L-74-5.3 M-74.3-5.3L-74.3-5.3L-74.3-5.3
					 M-74-5.3L-74-5.3L-74-5.3 M-74.3-5.3L-74.3-5.3L-74.3-5.3 M-74-5.3L-74-5.3L-74-5.3 M-74-5.3L-74-5.3L-74-5.3 M-74.3-5.3
					L-74.3-5.3L-74.3-5.3 M-74-5.3C-74-5.3-74-5.3-74-5.3C-74-5.3-74-5.3-74-5.3 M-74.3-5.3L-74.3-5.3L-74.3-5.3 M-74-5.3L-74-5.3
					L-74-5.3 M-73.9-5.3L-73.9-5.3L-73.9-5.3 M-73.9-5.3L-73.9-5.3L-73.9-5.3 M-73.9-5.3L-73.9-5.3L-73.9-5.3 M-73.9-5.3L-73.9-5.3
					L-73.9-5.3 M-73.9-5.3L-73.9-5.3L-73.9-5.3 M-73.8-5.3C-73.8-5.3-73.9-5.3-73.8-5.3C-73.9-5.3-73.8-5.3-73.8-5.3 M-73.8-5.3
					L-73.8-5.3L-73.8-5.3 M-73.8-5.3L-73.8-5.3L-73.8-5.3 M-73.8-5.3C-73.8-5.3-73.8-5.3-73.8-5.3C-73.8-5.3-73.8-5.3-73.8-5.3
					 M-73.8-5.3L-73.8-5.3L-73.8-5.3 M-73.7-5.3L-73.7-5.3L-73.7-5.3 M-73.7-5.3L-73.7-5.3L-73.7-5.3 M-73.7-5.3L-73.7-5.3
					L-73.7-5.3"/>
				<path class="st31" d="M-74-7.7c-1.2-0.1-2.4,0.4-3.2,1.3c0.8,0.6,1.8,1,2.8,1.1l0,0l0,0l0,0l0,0l0,0l0,0l0,0l0,0c0,0,0,0,0,0
					l0.2,0c0,0,0,0,0,0l0,0c0,0,0,0,0,0l0,0l0,0l0,0c0,0,0,0,0,0l0,0c0,0,0,0,0,0l0,0l0,0c0,0,0,0,0,0l0,0l0,0l0,0l0,0l0,0l0,0l0,0
					l0,0c0,0,0,0,0,0l0,0l0,0c0,0,0,0,0,0l0,0l0,0c0,0,0,0,0,0c0,0,0,0,0,0l0,0l0,0l0,0c0,0,0,0,0,0l0,0l0,0l0,0
					c1,0,1.9-0.3,2.7-0.8C-71.7-7-72.8-7.6-74-7.7"/>
			</g>
		</g>
	</g>
	<g transform="translate(61.838998, 211.245415)">
		<g id="Shape_113_" transform="translate(2.576625, 9.438948)">
			<polygon class="st2" points="-54.5,-34.3 -57.3,-34.3 -49.1,-104.4 -46.3,-104.4 			"/>
			<polygon class="st2" points="157.1,-34.3 159.9,-34.3 151.7,-104.4 148.9,-104.4 			"/>
		</g>
		<g id="Shape_112_" transform="translate(29.201749, 4.290431)">
			<polygon class="st7" points="114.1,-101.8 106.9,-39.3 109.7,-39.3 117,-101.8 			"/>
			<polygon class="st7" points="-68.2,-101.8 -60.8,-39.3 -58.1,-39.3 -65.4,-101.8 			"/>
		</g>
		<rect id="Rectangle-path_5_" x="-56.3" y="-100.1" class="st2" width="219.7" height="5.2"/>
	</g>
	<g id="Shape_62_" transform="translate(173.492745, 166.624936)">
		<path class="st1" d="M-41.1-55.5l4.5-25.6c0.1-0.4-0.3-0.8-0.6-0.8h-39.7c-0.4,0-0.9,0.4-0.9,0.8l-4.5,25.6L-41.1-55.5z"/>
		<path class="st1" d="M-78.9-56c0,0.3-0.3,0.4-0.4,0.4H-102c-0.3,0-0.4-0.3-0.4-0.4l0,0c0-0.3,0.3-0.4,0.4-0.4h22.5
			C-79.1-56.4-78.9-56.3-78.9-56L-78.9-56z"/>
		<path class="st32" d="M-40.3-55.5l4.5-25.6c0.1-0.4-0.3-0.8-0.6-0.8H-76c-0.4,0-0.9,0.4-0.9,0.8l-4.5,25.6L-40.3-55.5z"/>
		<path class="st33" d="M-57.2-68.7c0.2-0.9-0.4-1.6-1.4-1.6c-0.9,0-1.8,0.7-2,1.6c-0.1,0.9,0.5,1.6,1.4,1.6S-57.4-67.8-57.2-68.7z"
			/>
	</g>
	<g id="Shape_61_" transform="translate(268.827867, 186.360917)">
		<path class="st34" d="M-232.1-83.8c-0.6,0.6-1.2,1.3-1.6,2.1c0.2-0.8,0.3-1.6,0.3-2.5c0-2.1-0.6-4.2-1.8-5.9
			c-1.1,1.7-1.8,3.7-1.8,5.9c0,0.9,0.1,1.9,0.4,2.7c-0.4-0.8-1-1.5-1.7-2.2c-1.5-1.5-3.3-2.5-5.4-2.9c0.4,2,1.4,3.8,3,5.4
			c1.6,1.6,3.4,2.5,5.4,3c-0.1-0.2-0.1-0.4-0.1-0.5c0.1,0.2,0.3,0.4,0.3,0.5c0.1-0.1,0.1-0.3,0.3-0.4c0,0.1-0.1,0.3-0.1,0.4
			c2-0.4,3.8-1.3,5.4-3c1.5-1.5,2.5-3.4,3-5.4C-228.7-86.2-230.6-85.3-232.1-83.8z"/>
		<polygon class="st1" points="-230.9,-75.2 -239.6,-75.2 -241.9,-80.4 -228.5,-80.4 		"/>
	</g>
	<g>
		<ellipse id="Oval_14_" class="st35" cx="119.5" cy="18.6" rx="15.5" ry="15.5"/>
		<ellipse id="Oval_13_" class="st36" cx="119.5" cy="18.6" rx="12.3" ry="12.3"/>
		<polygon id="Shape_56_" class="st37" points="126,14.7 125.7,14.4 119.6,18.5 112,10.5 111.8,10.8 119.3,18.6 117.8,19.7 118,20 
			119.5,18.9 120.8,20.2 121.1,20 119.8,18.7 		"/>
	</g>
	<path class="st15" d="M50.3,79.8l4.4,24.6l37.3,1.3l-0.6,5.1H49.7l-6.9-23.4l-0.9-3.9c-0.3-1.1-0.3-2.2-0.1-3.3
		C42.9,74,50.3,79.8,50.3,79.8z"/>
	<path class="st1" d="M51.8,87.9l-8.1,3c0,0-5.4-9.8-2.3-12.3c3.2-2.5,7.6-1.9,8.2-0.6C50.3,79.2,51.8,87.9,51.8,87.9z"/>
	<g transform="translate(316.065990, 28.473068)">
		<g id="Shape_8_" transform="translate(0.000000, 139.868041)">
			<path class="st20" d="M-141.3-60.3c0,0-5.9-0.7-7,4.3c-1.2,5.1-4,13.6-1.2,13.7C-146.7-42.2-136.2-59.8-141.3-60.3z"/>
		</g>
		<path id="Shape_7_" class="st4" d="M-148.3,48.8h-29c-3.4,0-5.6,2.8-6.2,6.2c-0.6,4.2,3.2,46,3.2,46h34l4.2-46
			C-142.2,51.5-144.9,49.2-148.3,48.8z"/>
		<g id="Shape_6_" transform="translate(30.919499, 0.000000)">
			<path class="st20" d="M-194.2,49.2l-2.8-0.4l0.9-20c0.2-3.2,2.8-5.6,5.9-5.5l0,0c3.2,0.2,5.6,2.8,5.5,5.9l-0.7,19.5l-3.4,0.4
				C-190.5,49.4-192.3,49.4-194.2,49.2z"/>
			<path class="st20" d="M-174.2,27.7c-0.2,2-2,3.5-4,3.2l-24.2-2.5c-2-0.2-3.5-2-3.2-4l0.2-1.4c0.2-1.9,1.9-3.4,3.9-3.2l24.2,2.5
				c2,0.2,3.5,2,3.2,4L-174.2,27.7z"/>
			<path class="st38" d="M-178.5,36.7c-0.4,6.2-10.2,6.7-12.7,6.6c0,1.1-8.9-1-12.2-7.7l0.2-37.5c0.3-2.8,2.8-4.8,5.6-4.5l21.3,2.2
				c2.8,0.3,4.8,2.8,4.5,5.5L-178.5,36.7z"/>
			<path class="st38" d="M-193.6,14.6c0.1,0.6-0.4,1.1-0.9,1.2l-3.7,0.2c-0.6,0.1-1.1-0.4-1.2-0.9l0,0c-0.1-0.6,0.4-1.1,0.9-1.2
				l3.7-0.2C-194.1,13.6-193.7,14.1-193.6,14.6L-193.6,14.6z"/>
			<path class="st38" d="M-183.6,15.7c-0.2,0.6,0.2,1.2,0.7,1.3l3.5,1c0.6,0.2,1.2-0.2,1.3-0.7l0,0c0.2-0.6-0.2-1.2-0.7-1.3l-3.5-1
				C-182.9,14.8-183.4,15.2-183.6,15.7L-183.6,15.7z"/>
			<path class="st38" d="M-196.2,3.2c0,0-0.2,5.2,8.1,5.9c8.4,0.6,13.7,2.7,13.7,2.7s3.2-11.6,0.8-11.9
				C-176.1-0.4-196,0.5-196.2,3.2z"/>
			<path class="st38" d="M-195.7-5.1c0,0,0.9-4,4.3-3.8c3.4,0.2,3.9,3.6,7.5,4C-180.3-4.5-190.1,5-195.7-5.1z"/>
		</g>
		<polygon id="Shape_3_" class="st39" points="-142.2,54.6 -139.3,81.3 -157.8,81.3 		"/>
		<polygon id="Shape_2_" class="st20" points="-182.7,52.5 -189.8,81.3 -181,93.2 -181.9,81.4 		"/>
		<polygon id="Shape_1_" class="st39" points="-182.7,52.5 -190.3,71.1 -181.2,76 		"/>
		<g transform="translate(36.072749, 112.409284)">
			<ellipse id="Oval_1_" class="st32" cx="-185.6" cy="-33.9" rx="1.8" ry="1.8"/>
		</g>
	</g>
	<g>
		<g>
			<path class="st10" d="M173.1,173.3c0,0.6-1.1,1.1-2.4,1.1h-37.7c-1.3,0-2.4-0.5-2.4-1.1l0,0c0-0.6,1.1-1.1,2.4-1.1h37.6
				C172,172.2,173.1,172.6,173.1,173.3L173.1,173.3z"/>
			<g transform="translate(27.483999, 47.194738)">
				<path class="st10" d="M153.6,157.7c0.3,0.9,1.3,1.4,2.1,1.1l0,0c0.9-0.3,1.4-1.3,1.1-2.1l-13.6-45.2c-0.3-0.9-1.3-1.4-2.1-1.1
					l0,0c-0.9,0.3-1.4,1.3-1.1,2.1L153.6,157.7z"/>
				<path class="st10" d="M95.6,157.7c-0.3,0.9-1.3,1.4-2.1,1.1l0,0c-0.9-0.3-1.4-1.3-1.1-2.1l13.6-45.3c0.3-0.9,1.3-1.4,2.1-1.1
					l0,0c0.9,0.3,1.4,1.3,1.1,2.1L95.6,157.7z"/>
			</g>
		</g>
		<path class="st12" d="M192.3,136.5c0,29.6-18,34.7-40.2,34.7s-40.2-5.1-40.2-34.7s17.3-45,39.6-45S192.3,106.9,192.3,136.5z"/>
	</g>
	<path class="st11" d="M151.4,100.1c-21.1,0-37.8,13.9-39.4,40.7c1.7,25.8,19,30.4,40.1,30.4c21.1,0,38.4-4.6,40.1-30.3
		C190.5,114,172.6,100.1,151.4,100.1z"/>
</g>
</svg>
